<svg id="Ebene_1" data-name="Ebene 1" xmlns="http://www.w3.org/2000/svg" viewBox="0 0 436 478.8708"><defs><style>.cls-1{fill:#fff;}</style></defs><path class="cls-1" d="M238.6,11.6a43.4591,43.4591,0,0,0-8.7,4,33.9846,33.9846,0,0,1-4.3,2.4c-.3,0-4.7,2.4-9.9,5.4-5.1,3-15.4,8.8-22.8,12.9-14,7.9-31.3,17.5-38.9,21.9-8.4,4.8-26.5,15-54,30.5-57.7,32.6-57.1,32.2-61.7,40a61.8337,61.8337,0,0,0-4.5,10.1C32.1,144,32,150.6,32,249.7c0,103.4,0,105.5,2,111.4,4,11.8,10.1,18.4,23.6,25.6,9.1,4.8,16.1,6.3,28.9,6.3,15.1,0,25.7-4.8,34.9-15.7,7.9-9.4,6.3-3.9,32.6-108.8,9.7-38.6,12.8-49.8,12.9-46,0,2.7-1,24.1-2.4,47.5s-2.5,44.4-2.5,46.7V321h30.5l23.4-53c12.9-29.1,23.6-52.9,23.7-52.7.2.1-5.5,23.4-12.6,51.7s-13,52.1-13,52.7c0,1,4.3,1.3,18.3,1.3h18.2l4.8-19.3c2.7-10.5,11.3-45.2,19.1-77L288.7,167H232.5L213,211.4c-10.7,24.4-19.6,44.3-19.8,44.1-.1-.1.9-18.4,2.3-40.5,1.4-22.2,2.5-42.1,2.5-44.2V167H170c-15.4,0-28,.1-28,.2,0,.5-39,153.7-42.4,166.8-1.9,7.2-4.4,14.3-6,16.8-6,9.6-20,10.8-26.6,2.4-2-2.4-2-4.2-1.8-105.5l.3-103.1L80,136.5c8-4.5,16.3-9.2,18.5-10.4,2.2-1.3,11.7-6.6,21-11.9,9.4-5.2,24.3-13.7,33.3-18.9,9-5.1,16.5-9.3,16.7-9.3s3.8-2,7.9-4.5c4.2-2.5,7.8-4.5,8-4.5s7-3.8,15.1-8.5c8.2-4.7,14.9-8.5,15.1-8.5.1,0,7.3-4.1,16-9,8.7-5,16.9-9,18.2-9,2.2,0,22.9,11.1,51.4,27.6,7,4.1,13,7.4,13.3,7.4.2,0,4.2,2.2,8.7,4.8,4.6,2.7,11.5,6.6,15.3,8.7,3.9,2.1,10.6,5.9,15,8.5s10.9,6.3,14.5,8.2,10.1,5.5,14.5,8c4.4,2.6,17.2,9.8,28.5,16.1,11.3,6.4,21.3,12.3,22.3,13.1,1.6,1.5,1.7,7.8,1.7,105.6V354l-4,2.5a34.8535,34.8535,0,0,1-4.3,2.5c-.2,0-4.4,2.3-9.3,5.1-11.6,6.7-39.7,22.6-45.4,25.7-4.2,2.2-23.1,12.9-47,26.5-5.8,3.3-12.5,7.1-15,8.5s-9.4,5.3-15.5,8.7c-6,3.4-13.5,7.6-16.5,9.2-3,1.7-9.8,5.5-15.1,8.6-13,7.6-13.2,7.6-20.4,2.9-5.9-3.8-33.9-19.9-44.5-25.5-3-1.6-9.5-5.3-14.5-8.2-15.8-9-26.7-15.1-37-20.5l-10-5.3-4,2.2c-9.4,5.3-13.4,7.2-19.9,9.5-10.5,3.8-10.6,5.2-.7,10.7,3.1,1.8,10.6,6.1,16.8,9.5,6.1,3.5,11.4,6.4,11.7,6.4.6,0,8,4.1,58.1,32.9,39.6,22.7,39.3,22.5,48.8,23,10.1.4,15.3-.9,25.7-6.8,4.7-2.6,14.1-8,21-11.8,6.9-3.9,17.5-9.9,23.5-13.3,6.1-3.5,18-10.2,26.5-15s24.5-13.7,35.5-20c11-6.2,27.2-15.3,36-20.3,8.8-4.9,20.7-11.7,26.5-14.9,15.4-8.8,20.1-14,24.1-26.9,1.8-5.8,1.9-11,1.9-110.4,0-101-.1-104.5-2-110.7-2.3-7.7-6.8-14.7-11.8-18.6-2-1.6-13-8.1-24.3-14.5-11.3-6.3-24.5-13.8-29.4-16.6-4.8-2.8-8.9-5.1-9-5.1-.2,0-7.4-4.1-16-9-8.6-5-15.9-9-16.1-9a36.0777,36.0777,0,0,1-4.2-2.3c-2-1.3-9.3-5.5-16.2-9.4-11.1-6.2-39.2-22-49.2-27.7C263.3,11.5,259.6,10,249.6,10.1A46.3989,46.3989,0,0,0,238.6,11.6Z" transform="translate(-32 -10.0956)"/><path class="cls-1" d="M310,171c-1.7,6.2-37,149-37,149.5,0,.3,15.6.5,34.8.5,38.7,0,44.1-.6,55.1-6.2,16.4-8.3,29.2-29.9,29.4-49.3.1-6.5-.4-9-2.2-12.8a21.5788,21.5788,0,0,0-12.6-11.1l-3.4-1.2,6-2.9c12.9-6.1,22.6-19.9,25-35.6,2.2-13.9-1.6-24.2-10.7-29.5-8.3-4.9-13-5.4-49.6-5.4H311.1Zm50.6,28.3c5.8,6.8.2,23.4-9.2,27.3a28.3325,28.3325,0,0,1-9,1.4c-5.4,0-5.6-.1-5-2.3.3-1.2,2-8.4,3.8-16l3.3-13.9,6.9.4C357.4,196.5,358.5,196.9,360.6,199.3Zm-14.5,56.2c3.6,1.9,4.9,5,4.9,11.8,0,8.9-6.8,20.5-13.7,23.3-3,1.3-16.3,2-16.3.9,0-.3,2.1-8.9,4.6-19l4.6-18.5h6.5C340.5,254,344.3,254.6,346.1,255.5Z" transform="translate(-32 -10.0956)"/></svg>