<svg id="Ebene_2" data-name="Ebene 2" xmlns="http://www.w3.org/2000/svg" viewBox="0 0 749.21 247.94"><defs><style>.cls-1,.cls-2{fill:#fff;}.cls-2{font-size:150px;font-family:HarvestItal;}</style></defs><path class="cls-1" d="M127.58,53.12a23.21,23.21,0,0,0-4.5,2.07,17.41,17.41,0,0,1-2.23,1.25c-.15,0-2.43,1.24-5.13,2.79s-8,4.56-11.8,6.68C96.67,70,87.71,75,83.78,77.25,79.43,79.74,70.06,85,55.82,93,26,109.92,26.26,109.71,23.87,113.75A32.19,32.19,0,0,0,21.54,119c-.88,2.69-.93,6.11-.93,57.42,0,53.54,0,54.62,1,57.68,2.07,6.11,5.23,9.53,12.22,13.25,4.71,2.49,8.33,3.27,15,3.27,7.82,0,13.31-2.49,18.07-8.13,4.09-4.87,3.26-2,16.88-56.33,5-20,6.63-25.79,6.68-23.82,0,1.4-.52,12.48-1.24,24.59s-1.3,23-1.3,24.18v2.23h15.79l12.12-27.44c6.68-15.07,12.22-27.39,12.27-27.29s-2.85,12.12-6.52,26.77-6.74,27-6.74,27.28c0,.52,2.23.68,9.48.68h9.42l2.49-10c1.4-5.43,5.85-23.4,9.89-39.86l7.4-29.88h-29.1l-10.09,23c-5.54,12.63-10.15,22.94-10.25,22.83s.46-9.52,1.19-21,1.29-21.8,1.29-22.89v-2H92.06c-8,0-14.49,0-14.49.11,0,.26-20.2,79.58-22,86.36a40.78,40.78,0,0,1-3.1,8.7c-3.11,5-10.36,5.59-13.78,1.24-1-1.24-1-2.18-.93-54.62L38,122l7.51-4.2c4.14-2.33,8.43-4.76,9.57-5.38s6.06-3.42,10.88-6.16,12.58-7.1,17.24-9.79,8.54-4.82,8.64-4.82a46.94,46.94,0,0,0,4.09-2.33C98.07,88,99.93,87,100,87s3.62-2,7.81-4.4,7.72-4.4,7.82-4.4,3.78-2.12,8.29-4.66,8.75-4.66,9.42-4.66c1.14,0,11.86,5.75,26.61,14.29,3.63,2.13,6.73,3.83,6.89,3.83s2.17,1.14,4.5,2.49,6,3.42,7.93,4.5,5.48,3.06,7.76,4.41,5.65,3.26,7.51,4.24,5.23,2.85,7.51,4.14,8.9,5.08,14.75,8.34,11,6.37,11.55,6.78c.83.78.88,4,.88,54.68V230.4l-2.07,1.3A19,19,0,0,1,225,233c-.1,0-2.28,1.19-4.81,2.64-6,3.47-20.56,11.7-23.51,13.31-2.17,1.14-12,6.68-24.33,13.72-3,1.71-6.48,3.68-7.77,4.4s-4.87,2.74-8,4.5-7,3.94-8.54,4.77-5.07,2.85-7.82,4.45c-6.73,3.94-6.83,3.94-10.56,1.5-3-2-17.55-10.3-23-13.2-1.55-.83-4.92-2.74-7.51-4.25-8.18-4.66-13.82-7.81-19.15-10.61l-5.18-2.74-2.07,1.14a56.75,56.75,0,0,1-10.31,4.91c-5.43,2-5.48,2.7-.36,5.54,1.61.94,5.49,3.16,8.7,4.92s5.9,3.32,6.06,3.32c.31,0,4.14,2.12,30.08,17,20.5,11.75,20.35,11.65,25.27,11.91,5.23.21,7.92-.47,13.3-3.52,2.44-1.35,7.3-4.14,10.88-6.11l12.16-6.89c3.16-1.81,9.32-5.28,13.72-7.76s12.69-7.1,18.38-10.36,14.09-7.92,18.64-10.51,10.72-6.06,13.72-7.71c8-4.56,10.41-7.25,12.48-13.93.93-3,1-5.7,1-57.16,0-52.3,0-54.11-1-57.32a19.78,19.78,0,0,0-6.11-9.63c-1-.83-6.73-4.19-12.58-7.51s-12.69-7.14-15.22-8.59-4.61-2.64-4.66-2.64-3.83-2.12-8.29-4.66-8.23-4.66-8.33-4.66A20,20,0,0,1,188,80.1c-1-.67-4.81-2.85-8.39-4.87-5.74-3.21-20.29-11.39-25.47-14.34-13.72-7.82-15.64-8.6-20.81-8.54A24.3,24.3,0,0,0,127.58,53.12Z" transform="translate(-20.61 -52.34)"/><path class="cls-1" d="M164.55,135.65c-.88,3.21-19.16,77.15-19.16,77.41s8.08.26,18,.26c20,0,22.83-.31,28.53-3.21,8.49-4.3,15.12-15.48,15.22-25.53.05-3.36-.21-4.66-1.14-6.63a11.16,11.16,0,0,0-6.52-5.74l-1.76-.62,3.1-1.51c6.68-3.15,11.71-10.3,12.95-18.43,1.14-7.19-.83-12.53-5.54-15.27-4.3-2.54-6.73-2.8-25.68-2.8H165.12Zm26.2,14.66c3,3.52.1,12.11-4.77,14.13a14.7,14.7,0,0,1-4.66.73c-2.79,0-2.89-.06-2.58-1.19l2-8.29,1.71-7.2,3.57.21C189.09,148.86,189.66,149.06,190.75,150.31Zm-7.51,29.09c1.86,1,2.54,2.59,2.54,6.11,0,4.61-3.52,10.62-7.1,12.07-1.55.67-8.44,1-8.44.46,0-.15,1.09-4.6,2.39-9.83l2.38-9.58h3.36A13,13,0,0,1,183.24,179.4Z" transform="translate(-20.61 -52.34)"/><text class="cls-2" transform="translate(252.27 176.36)">Dev-MB</text></svg>